<svg width="152" height="131" viewBox="0 0 152 131" fill="none" xmlns="http://www.w3.org/2000/svg">
<circle cx="76" cy="58" r="52" fill="#A3ABBF"/>
<circle cx="21" cy="25" r="5" fill="#C1C6D4"/>
<circle cx="18" cy="109" r="7" fill="#C1C6D4"/>
<circle cx="145" cy="41" r="7" fill="#C1C6D4"/>
<circle cx="134" cy="14" r="4" fill="#C1C6D4"/>
<g filter="url(#filter0_dd_2427_235479)">
<path d="M76 36.0629L80.536 34.1629L76.0006 36.0951V90.1898L117.796 72.6754V18.5566L118 18.4712L117.796 18.3809V18.29L117.692 18.3346L76.3298 0L34 18.0314L34.2004 18.1175L34 72.0166L76 90.1576L76 36.0629Z" fill="#F9FAFB"/>
<path d="M76 36.063V90.1577L34 72.0166L34.2004 18.1176L76 36.063Z" fill="url(#paint0_linear_2427_235479)"/>
<path d="M76.001 36.0951V90.1898L117.797 72.6754V18.29L76.001 36.0951Z" fill="url(#paint1_linear_2427_235479)"/>
<path d="M76 36.0629L118 18.4712L76.3298 0L34 18.0314L76 36.0629Z" fill="#C1C6D4"/>
<path d="M49.8325 11.2873L91.6723 29.4986L92.0524 42.7698L103.759 37.9395L103.405 24.5846L60.3271 6.81689L49.8325 11.2873Z" fill="#A3ABBF"/>
</g>
<g filter="url(#filter1_b_2427_235479)">
<rect x="52" y="68" width="48" height="48" rx="24" fill="#283352" fill-opacity="0.4"/>
<path d="M72 96L76 92M76 92L80 96M76 92V101M84 96.7428C85.2215 95.734 86 94.2079 86 92.5C86 89.4624 83.5376 87 80.5 87C80.2815 87 80.0771 86.886 79.9661 86.6977C78.6621 84.4848 76.2544 83 73.5 83C69.3579 83 66 86.3579 66 90.5C66 92.5661 66.8354 94.4371 68.1869 95.7935" stroke="white" stroke-width="2" stroke-linecap="round" stroke-linejoin="round"/>
</g>
<defs>
<filter id="filter0_dd_2427_235479" x="14" y="0" width="124" height="130.19" filterUnits="userSpaceOnUse" color-interpolation-filters="sRGB">
<feFlood flood-opacity="0" result="BackgroundImageFix"/>
<feColorMatrix in="SourceAlpha" type="matrix" values="0 0 0 0 0 0 0 0 0 0 0 0 0 0 0 0 0 0 127 0" result="hardAlpha"/>
<feMorphology radius="4" operator="erode" in="SourceAlpha" result="effect1_dropShadow_2427_235479"/>
<feOffset dy="8"/>
<feGaussianBlur stdDeviation="4"/>
<feColorMatrix type="matrix" values="0 0 0 0 0.0627451 0 0 0 0 0.0941176 0 0 0 0 0.156863 0 0 0 0.03 0"/>
<feBlend mode="normal" in2="BackgroundImageFix" result="effect1_dropShadow_2427_235479"/>
<feColorMatrix in="SourceAlpha" type="matrix" values="0 0 0 0 0 0 0 0 0 0 0 0 0 0 0 0 0 0 127 0" result="hardAlpha"/>
<feMorphology radius="4" operator="erode" in="SourceAlpha" result="effect2_dropShadow_2427_235479"/>
<feOffset dy="20"/>
<feGaussianBlur stdDeviation="12"/>
<feColorMatrix type="matrix" values="0 0 0 0 0.0627451 0 0 0 0 0.0941176 0 0 0 0 0.156863 0 0 0 0.08 0"/>
<feBlend mode="normal" in2="effect1_dropShadow_2427_235479" result="effect2_dropShadow_2427_235479"/>
<feBlend mode="normal" in="SourceGraphic" in2="effect2_dropShadow_2427_235479" result="shape"/>
</filter>
<filter id="filter1_b_2427_235479" x="44" y="60" width="64" height="64" filterUnits="userSpaceOnUse" color-interpolation-filters="sRGB">
<feFlood flood-opacity="0" result="BackgroundImageFix"/>
<feGaussianBlur in="BackgroundImageFix" stdDeviation="4"/>
<feComposite in2="SourceAlpha" operator="in" result="effect1_backgroundBlur_2427_235479"/>
<feBlend mode="normal" in="SourceGraphic" in2="effect1_backgroundBlur_2427_235479" result="shape"/>
</filter>
<linearGradient id="paint0_linear_2427_235479" x1="34" y1="72.2885" x2="50.587" y2="27.3666" gradientUnits="userSpaceOnUse">
<stop stop-color="#DFE7FF"/>
<stop offset="1" stop-color="#F2F6FF"/>
</linearGradient>
<linearGradient id="paint1_linear_2427_235479" x1="76.0004" y1="37.1539" x2="123.359" y2="46.5826" gradientUnits="userSpaceOnUse">
<stop stop-color="#D8E8FF"/>
<stop offset="1" stop-color="#F1F7FF"/>
</linearGradient>
</defs>
</svg>
