<svg width="22" height="22" viewBox="0 0 22 22" fill="none" xmlns="http://www.w3.org/2000/svg">
<path d="M14.6314 6.63137C14.2353 6.23535 14.0373 6.03735 13.9631 5.80902C13.8979 5.60817 13.8979 5.39183 13.9631 5.19098C14.0373 4.96265 14.2353 4.76465 14.6314 4.36863L17.4697 1.53026C16.7165 1.18962 15.8804 1 15 1C11.6863 1 8.99998 3.68629 8.99998 7C8.99998 7.49104 9.05897 7.9683 9.17024 8.42509C9.2894 8.91424 9.34898 9.15882 9.33841 9.31333C9.32733 9.47509 9.30321 9.56115 9.22862 9.70511C9.15736 9.84262 9.02084 9.97914 8.7478 10.2522L2.49998 16.5C1.67156 17.3284 1.67156 18.6716 2.49998 19.5C3.32841 20.3284 4.67156 20.3284 5.49998 19.5L11.7478 13.2522C12.0208 12.9791 12.1574 12.8426 12.2949 12.7714C12.4388 12.6968 12.5249 12.6727 12.6867 12.6616C12.8412 12.651 13.0857 12.7106 13.5749 12.8297C14.0317 12.941 14.5089 13 15 13C18.3137 13 21 10.3137 21 7C21 6.11959 20.8104 5.28347 20.4697 4.53026L17.6314 7.36863C17.2353 7.76465 17.0373 7.96265 16.809 8.03684C16.6082 8.1021 16.3918 8.1021 16.191 8.03684C15.9626 7.96265 15.7646 7.76465 15.3686 7.36863L14.6314 6.63137Z" stroke="#7A84A2" stroke-width="2" stroke-linecap="round" stroke-linejoin="round"/>
</svg>
