<svg width="19" height="20" viewBox="0 0 19 20" fill="none" xmlns="http://www.w3.org/2000/svg">
<path d="M14.4357 9.10241H9.94855M14.4357 12.6922H9.94855M14.4357 5.51266H9.94855M6.80753 1.92292L6.80753 18.0768M5.73061 1.92292H13.2691C14.7769 1.92292 15.5308 1.92292 16.1067 2.21636C16.6133 2.47448 17.0252 2.88636 17.2833 3.39295C17.5768 3.96886 17.5768 4.72278 17.5768 6.23061V13.7691C17.5768 15.2769 17.5768 16.0308 17.2833 16.6067C17.0252 17.1133 16.6133 17.5252 16.1067 17.7833C15.5308 18.0768 14.7769 18.0768 13.2691 18.0768H5.7306C4.22277 18.0768 3.46885 18.0768 2.89294 17.7833C2.38635 17.5252 1.97448 17.1133 1.71636 16.6067C1.42291 16.0308 1.42291 15.2769 1.42291 13.7691V6.23061C1.42291 4.72278 1.42291 3.96886 1.71636 3.39295C1.97448 2.88636 2.38635 2.47448 2.89294 2.21636C3.46885 1.92292 4.22277 1.92292 5.73061 1.92292Z" stroke="#AFB6C7" stroke-width="2" stroke-linecap="round" stroke-linejoin="round"/>
</svg>
