<svg width="21" height="22" viewBox="0 0 21 22" fill="none" xmlns="http://www.w3.org/2000/svg">
<path d="M14.3592 20.3076H5.09055C4.48473 20.3076 4.18183 20.3076 4.04156 20.1837C3.91986 20.0762 3.85527 19.915 3.86783 19.75C3.8823 19.5598 4.09649 19.3383 4.52487 18.8953L13.0278 10.1018C13.4238 9.69227 13.6218 9.48749 13.8502 9.41077C14.051 9.34328 14.2674 9.34328 14.4682 9.41077C14.6965 9.48749 14.8945 9.69226 15.2905 10.1018L19.1592 14.1026V15.3436M14.3592 20.3076C16.0393 20.3076 16.8794 20.3076 17.5212 19.9695C18.0856 19.672 18.5446 19.1974 18.8322 18.6136C19.1592 17.95 19.1592 17.0812 19.1592 15.3436M14.3592 20.3076H5.95918C4.27902 20.3076 3.43894 20.3076 2.79721 19.9695C2.23272 19.672 1.77378 19.1974 1.48616 18.6136C1.15918 17.95 1.15918 17.0812 1.15918 15.3436V6.65662C1.15918 4.91906 1.15918 4.05028 1.48616 3.38662C1.77378 2.80285 2.23272 2.32823 2.79721 2.03078C3.43894 1.69263 4.27902 1.69263 5.95918 1.69263H14.3592C16.0393 1.69263 16.8794 1.69263 17.5212 2.03078C18.0856 2.32823 18.5446 2.80285 18.8322 3.38662C19.1592 4.05028 19.1592 4.91906 19.1592 6.65662V15.3436M8.65918 7.38054C8.65918 8.52285 7.76375 9.44887 6.65918 9.44887C5.55461 9.44887 4.65918 8.52285 4.65918 7.38054C4.65918 6.23823 5.55461 5.31221 6.65918 5.31221C7.76375 5.31221 8.65918 6.23823 8.65918 7.38054Z" stroke="#CCCCCC" stroke-width="2" stroke-linecap="round" stroke-linejoin="round"/>
</svg>
