<svg width="18" height="18" viewBox="0 0 18 18" fill="none" xmlns="http://www.w3.org/2000/svg">
<path d="M12.5 16.5H4.77614C4.2713 16.5 4.01887 16.5 3.90199 16.4002C3.80056 16.3135 3.74674 16.1836 3.75721 16.0506C3.76927 15.8974 3.94776 15.7189 4.30474 15.3619L11.3905 8.27614C11.7205 7.94613 11.8855 7.78112 12.0758 7.7193C12.2432 7.66492 12.4235 7.66492 12.5908 7.7193C12.7811 7.78112 12.9461 7.94613 13.2761 8.27614L16.5 11.5V12.5M12.5 16.5C13.9001 16.5 14.6002 16.5 15.135 16.2275C15.6054 15.9878 15.9878 15.6054 16.2275 15.135C16.5 14.6002 16.5 13.9001 16.5 12.5M12.5 16.5H5.5C4.09987 16.5 3.3998 16.5 2.86502 16.2275C2.39462 15.9878 2.01217 15.6054 1.77248 15.135C1.5 14.6002 1.5 13.9001 1.5 12.5V5.5C1.5 4.09987 1.5 3.3998 1.77248 2.86502C2.01217 2.39462 2.39462 2.01217 2.86502 1.77248C3.3998 1.5 4.09987 1.5 5.5 1.5H12.5C13.9001 1.5 14.6002 1.5 15.135 1.77248C15.6054 2.01217 15.9878 2.39462 16.2275 2.86502C16.5 3.3998 16.5 4.09987 16.5 5.5V12.5M7.75 6.08333C7.75 7.00381 7.00381 7.75 6.08333 7.75C5.16286 7.75 4.41667 7.00381 4.41667 6.08333C4.41667 5.16286 5.16286 4.41667 6.08333 4.41667C7.00381 4.41667 7.75 5.16286 7.75 6.08333Z" stroke="white" stroke-width="1.66667" stroke-linecap="round" stroke-linejoin="round"/>
</svg>
