<svg width="26" height="26" viewBox="0 0 26 26" fill="none" xmlns="http://www.w3.org/2000/svg">
<rect opacity="0.1" width="26" height="26" rx="4" fill="#B51A93"/>
<path d="M20.5 10.9167V9.5C20.5 8.09987 20.5 7.3998 20.2275 6.86502C19.9878 6.39462 19.6054 6.01217 19.135 5.77248C18.6002 5.5 17.9001 5.5 16.5 5.5H9.5C8.09987 5.5 7.3998 5.5 6.86502 5.77248C6.39462 6.01217 6.01217 6.39462 5.77248 6.86502C5.5 7.3998 5.5 8.09987 5.5 9.5V16.5C5.5 17.9001 5.5 18.6002 5.77248 19.135C6.01217 19.6054 6.39462 19.9878 6.86502 20.2275C7.3998 20.5 8.09987 20.5 9.5 20.5H10.9167M17.4885 17.7594L16.0733 20.3877C15.8419 20.8173 15.7263 21.0322 15.5853 21.0882C15.4629 21.1369 15.3247 21.1248 15.2126 21.0557C15.0835 20.976 15.0068 20.7444 14.8534 20.2812L12.5837 13.4261C12.4494 13.0205 12.3822 12.8176 12.4305 12.6826C12.4725 12.565 12.565 12.4725 12.6826 12.4305C12.8176 12.3822 13.0205 12.4494 13.4261 12.5837L20.2812 14.8534C20.7444 15.0068 20.976 15.0835 21.0556 15.2126C21.1248 15.3247 21.1369 15.4629 21.0882 15.5853C21.0321 15.7263 20.8173 15.8419 20.3877 16.0733L17.7594 17.4885C17.694 17.5238 17.6612 17.5414 17.6326 17.564C17.6071 17.5841 17.5841 17.6071 17.564 17.6326C17.5414 17.6612 17.5238 17.694 17.4885 17.7594Z" stroke="#B51A93" stroke-width="1.66667" stroke-linecap="round" stroke-linejoin="round"/>
</svg>
