<svg width="18" height="20" viewBox="0 0 18 20" fill="none" xmlns="http://www.w3.org/2000/svg">
<path d="M16.5 8.33329H1.5M12.3333 1.66663V4.99996M5.66667 1.66663V4.99996M7.75 11.6666L9 10.8333V15M7.95833 15H10.0417M5.5 18.3333H12.5C13.9001 18.3333 14.6002 18.3333 15.135 18.0608C15.6054 17.8211 15.9878 17.4387 16.2275 16.9683C16.5 16.4335 16.5 15.7334 16.5 14.3333V7.33329C16.5 5.93316 16.5 5.2331 16.2275 4.69832C15.9878 4.22791 15.6054 3.84546 15.135 3.60578C14.6002 3.33329 13.9001 3.33329 12.5 3.33329H5.5C4.09987 3.33329 3.3998 3.33329 2.86502 3.60578C2.39462 3.84546 2.01217 4.22791 1.77248 4.69832C1.5 5.2331 1.5 5.93316 1.5 7.33329V14.3333C1.5 15.7334 1.5 16.4335 1.77248 16.9683C2.01217 17.4387 2.39462 17.8211 2.86502 18.0608C3.3998 18.3333 4.09987 18.3333 5.5 18.3333Z" stroke="#667085" stroke-width="1.66667" stroke-linecap="round" stroke-linejoin="round"/>
</svg>
