<svg
  width="11"
  height="18"
  viewBox="0 0 11 18"
  fill="none"
  xmlns="http://www.w3.org/2000/svg"
>
<path
    d="M9 3C9.55228 3 10 2.55228 10 2C10 1.44772 9.55228 1 9 1C8.44772 1 8 1.44772 8 2C8 2.55228 8.44772 3 9 3Z"
    stroke="#667085"
    stroke-width="2"
    stroke-linecap="round"
    stroke-linejoin="round"
  />
<path
    d="M9 10C9.55228 10 10 9.55228 10 9C10 8.44772 9.55228 8 9 8C8.44772 8 8 8.44772 8 9C8 9.55228 8.44772 10 9 10Z"
    stroke="#667085"
    stroke-width="2"
    stroke-linecap="round"
    stroke-linejoin="round"
  />
<path
    d="M9 17C9.55228 17 10 16.5523 10 16C10 15.4477 9.55228 15 9 15C8.44772 15 8 15.4477 8 16C8 16.5523 8.44772 17 9 17Z"
    stroke="#667085"
    stroke-width="2"
    stroke-linecap="round"
    stroke-linejoin="round"
  />
</svg>
