<svg width="22" height="22" viewBox="0 0 22 22" fill="none" xmlns="http://www.w3.org/2000/svg">
<path d="M5.95833 5.95833H5.9675M16.0417 5.95833H16.0508M5.95833 16.0417H5.9675M11.9167 11.9167H11.9258M16.0417 16.0417H16.0508M15.5833 19.25H19.25V15.5833M12.8333 15.125V19.25M19.25 12.8333H15.125M14.3 9.16667H17.7833C18.2967 9.16667 18.5534 9.16667 18.7495 9.06676C18.922 8.97887 19.0622 8.83864 19.1501 8.66616C19.25 8.47007 19.25 8.21338 19.25 7.7V4.21667C19.25 3.70329 19.25 3.44659 19.1501 3.25051C19.0622 3.07803 18.922 2.93779 18.7495 2.84991C18.5534 2.75 18.2967 2.75 17.7833 2.75H14.3C13.7866 2.75 13.5299 2.75 13.3338 2.84991C13.1614 2.93779 13.0211 3.07803 12.9332 3.25051C12.8333 3.44659 12.8333 3.70329 12.8333 4.21667V7.7C12.8333 8.21338 12.8333 8.47007 12.9332 8.66616C13.0211 8.83864 13.1614 8.97887 13.3338 9.06676C13.5299 9.16667 13.7866 9.16667 14.3 9.16667ZM4.21667 9.16667H7.7C8.21338 9.16667 8.47007 9.16667 8.66616 9.06676C8.83864 8.97887 8.97887 8.83864 9.06676 8.66616C9.16667 8.47007 9.16667 8.21338 9.16667 7.7V4.21667C9.16667 3.70329 9.16667 3.44659 9.06676 3.25051C8.97887 3.07803 8.83864 2.93779 8.66616 2.84991C8.47007 2.75 8.21338 2.75 7.7 2.75H4.21667C3.70329 2.75 3.44659 2.75 3.25051 2.84991C3.07803 2.93779 2.93779 3.07803 2.84991 3.25051C2.75 3.44659 2.75 3.70329 2.75 4.21667V7.7C2.75 8.21338 2.75 8.47007 2.84991 8.66616C2.93779 8.83864 3.07803 8.97887 3.25051 9.06676C3.44659 9.16667 3.70329 9.16667 4.21667 9.16667ZM4.21667 19.25H7.7C8.21338 19.25 8.47007 19.25 8.66616 19.1501C8.83864 19.0622 8.97887 18.922 9.06676 18.7495C9.16667 18.5534 9.16667 18.2967 9.16667 17.7833V14.3C9.16667 13.7866 9.16667 13.5299 9.06676 13.3338C8.97887 13.1614 8.83864 13.0211 8.66616 12.9332C8.47007 12.8333 8.21338 12.8333 7.7 12.8333H4.21667C3.70329 12.8333 3.44659 12.8333 3.25051 12.9332C3.07803 13.0211 2.93779 13.1614 2.84991 13.3338C2.75 13.5299 2.75 13.7866 2.75 14.3V17.7833C2.75 18.2967 2.75 18.5534 2.84991 18.7495C2.93779 18.922 3.07803 19.0622 3.25051 19.1501C3.44659 19.25 3.70329 19.25 4.21667 19.25Z" stroke="#667085" stroke-width="1.7" stroke-linecap="round" stroke-linejoin="round"/>
</svg>
