<svg width="20" height="18" viewBox="0 0 20 18" fill="none" xmlns="http://www.w3.org/2000/svg">
<path d="M12 7C12.9319 7 13.3978 7 13.7654 6.84776C14.2554 6.64477 14.6448 6.25542 14.8478 5.76537C15 5.39782 15 4.93188 15 4C15 3.06812 15 2.60218 14.8478 2.23463C14.6448 1.74458 14.2554 1.35523 13.7654 1.15224C13.3978 1 12.9319 1 12 1L4 1C3.06812 1 2.60218 1 2.23463 1.15224C1.74458 1.35523 1.35523 1.74458 1.15224 2.23463C1 2.60218 1 3.06812 1 4C1 4.93188 1 5.39782 1.15224 5.76537C1.35523 6.25542 1.74458 6.64477 2.23463 6.84776C2.60218 7 3.06812 7 4 7L12 7Z" stroke="#667085" stroke-width="2" stroke-linecap="round" stroke-linejoin="round"/>
<path d="M16 17C16.9319 17 17.3978 17 17.7654 16.8478C18.2554 16.6448 18.6448 16.2554 18.8478 15.7654C19 15.3978 19 14.9319 19 14C19 13.0681 19 12.6022 18.8478 12.2346C18.6448 11.7446 18.2554 11.3552 17.7654 11.1522C17.3978 11 16.9319 11 16 11H4C3.06812 11 2.60218 11 2.23463 11.1522C1.74458 11.3552 1.35523 11.7446 1.15224 12.2346C1 12.6022 1 13.0681 1 14C1 14.9319 1 15.3978 1.15224 15.7654C1.35523 16.2554 1.74458 16.6448 2.23463 16.8478C2.60218 17 3.06812 17 4 17L16 17Z" stroke="#667085" stroke-width="2" stroke-linecap="round" stroke-linejoin="round"/>
</svg>
