<svg width="26" height="26" viewBox="0 0 26 26" fill="none" xmlns="http://www.w3.org/2000/svg">
<path d="M20.4998 5.49935L15.4998 5.49935M20.4998 8.83268L15.4998 8.83268M20.4998 12.166L15.4998 12.166M7.58317 14.4642V6.74935C7.58317 5.59875 8.51591 4.66602 9.6665 4.66602C10.8171 4.66602 11.7498 5.59876 11.7498 6.74935V14.4642C12.7548 15.1369 13.4165 16.2825 13.4165 17.5827C13.4165 19.6538 11.7376 21.3327 9.6665 21.3327C7.59544 21.3327 5.9165 19.6538 5.9165 17.5827C5.9165 16.2825 6.57818 15.1369 7.58317 14.4642ZM10.4998 17.5827C10.4998 18.0429 10.1267 18.416 9.6665 18.416C9.20627 18.416 8.83317 18.0429 8.83317 17.5827C8.83317 17.1224 9.20627 16.7493 9.6665 16.7493C10.1267 16.7493 10.4998 17.1224 10.4998 17.5827Z" stroke="#CA422F" stroke-width="1.66667" stroke-linecap="round" stroke-linejoin="round"/>
<rect opacity="0.1" width="26" height="26" rx="4" fill="#CA422F"/>
</svg>
