<svg width="20" height="20" viewBox="0 0 20 20" fill="none" xmlns="http://www.w3.org/2000/svg">
<path d="M10 3.33366V12.667C10 14.0671 10 14.7672 10.2725 15.302C10.5122 15.7724 10.8946 16.1548 11.365 16.3945C11.8998 16.667 12.5999 16.667 14 16.667H14.1667M14.1667 16.667C14.1667 17.5875 14.9129 18.3337 15.8333 18.3337C16.7538 18.3337 17.5 17.5875 17.5 16.667C17.5 15.7465 16.7538 15.0003 15.8333 15.0003C14.9129 15.0003 14.1667 15.7465 14.1667 16.667ZM5.83333 3.33366L14.1667 3.33366M5.83333 3.33366C5.83333 4.25413 5.08714 5.00033 4.16667 5.00033C3.24619 5.00033 2.5 4.25413 2.5 3.33366C2.5 2.41318 3.24619 1.66699 4.16667 1.66699C5.08714 1.66699 5.83333 2.41318 5.83333 3.33366ZM14.1667 3.33366C14.1667 4.25413 14.9129 5.00033 15.8333 5.00033C16.7538 5.00033 17.5 4.25413 17.5 3.33366C17.5 2.41318 16.7538 1.66699 15.8333 1.66699C14.9129 1.66699 14.1667 2.41318 14.1667 3.33366ZM10 10.0003H14.1667M14.1667 10.0003C14.1667 10.9208 14.9129 11.667 15.8333 11.667C16.7538 11.667 17.5 10.9208 17.5 10.0003C17.5 9.07985 16.7538 8.33366 15.8333 8.33366C14.9129 8.33366 14.1667 9.07985 14.1667 10.0003Z" stroke="#475467" stroke-width="1.5" stroke-linecap="round" stroke-linejoin="round"/>
</svg>
